<mxfile host="65bd71144e">
    <diagram id="9bo6lB29iJBaixTqfDXy" name="Entidades">
        <mxGraphModel dx="1066" dy="612" grid="0" gridSize="10" guides="1" tooltips="1" connect="1" arrows="1" fold="1" page="1" pageScale="1" pageWidth="827" pageHeight="1169" math="0" shadow="0">
            <root>
                <mxCell id="0"/>
                <mxCell id="1" parent="0"/>
                <mxCell id="E5CGOYZQQNFgpsp4i5av-1" value="Usuarios" style="rounded=0;whiteSpace=wrap;html=1;fillColor=#a20025;strokeColor=#6F0000;fontColor=#ffffff;" parent="1" vertex="1">
                    <mxGeometry x="148" y="148" width="120" height="42" as="geometry"/>
                </mxCell>
                <mxCell id="E5CGOYZQQNFgpsp4i5av-2" value="comentarios" style="rounded=0;whiteSpace=wrap;html=1;fillColor=#a20025;strokeColor=#6F0000;fontColor=#ffffff;" parent="1" vertex="1">
                    <mxGeometry x="216" y="227" width="120" height="42" as="geometry"/>
                </mxCell>
                <mxCell id="E5CGOYZQQNFgpsp4i5av-3" value="posts" style="rounded=0;whiteSpace=wrap;html=1;fillColor=#a20025;strokeColor=#6F0000;fontColor=#ffffff;" parent="1" vertex="1">
                    <mxGeometry x="347" y="148" width="120" height="42" as="geometry"/>
                </mxCell>
                <mxCell id="E5CGOYZQQNFgpsp4i5av-4" value="categorias" style="rounded=0;whiteSpace=wrap;html=1;fillColor=#a20025;strokeColor=#6F0000;fontColor=#ffffff;" parent="1" vertex="1">
                    <mxGeometry x="447" y="227" width="120" height="42" as="geometry"/>
                </mxCell>
                <mxCell id="D1dlcUwSeutNXbUHuDyB-1" value="etiquetas" style="rounded=0;whiteSpace=wrap;html=1;fillColor=#a20025;strokeColor=#6F0000;fontColor=#ffffff;" parent="1" vertex="1">
                    <mxGeometry x="546" y="151" width="120" height="42" as="geometry"/>
                </mxCell>
            </root>
        </mxGraphModel>
    </diagram>
    <diagram id="myhk5URKm1sybQ1XWT9F" name="Atributos">
        <mxGraphModel dx="1066" dy="612" grid="0" gridSize="10" guides="1" tooltips="1" connect="1" arrows="1" fold="1" page="1" pageScale="1" pageWidth="827" pageHeight="1169" math="0" shadow="0">
            <root>
                <mxCell id="9wkIlSxGFb8dEJGIH2XC-0"/>
                <mxCell id="9wkIlSxGFb8dEJGIH2XC-1" parent="9wkIlSxGFb8dEJGIH2XC-0"/>
                <mxCell id="ipU3ICNBWLIdkFZe6pB1-0" value="" style="html=1;dashed=0;whitespace=wrap;shape=mxgraph.dfd.start;" parent="9wkIlSxGFb8dEJGIH2XC-1" vertex="1">
                    <mxGeometry x="153.5" y="334.5" width="151" height="43" as="geometry"/>
                </mxCell>
                <mxCell id="oN1Ihet6U_s27T4Rhnav-2" style="edgeStyle=none;html=1;entryX=0;entryY=0.5;entryDx=0;entryDy=0;entryPerimeter=0;" parent="9wkIlSxGFb8dEJGIH2XC-1" source="oN1Ihet6U_s27T4Rhnav-4" target="oN1Ihet6U_s27T4Rhnav-12" edge="1">
                    <mxGeometry relative="1" as="geometry"/>
                </mxCell>
                <mxCell id="oN1Ihet6U_s27T4Rhnav-3" style="edgeStyle=none;html=1;entryX=1;entryY=0.5;entryDx=0;entryDy=0;entryPerimeter=0;" parent="9wkIlSxGFb8dEJGIH2XC-1" source="oN1Ihet6U_s27T4Rhnav-4" target="oN1Ihet6U_s27T4Rhnav-16" edge="1">
                    <mxGeometry relative="1" as="geometry"/>
                </mxCell>
                <mxCell id="T-kB5hm5GkA2p3zokxmt-2" value="" style="edgeStyle=none;html=1;" parent="9wkIlSxGFb8dEJGIH2XC-1" source="oN1Ihet6U_s27T4Rhnav-4" target="T-kB5hm5GkA2p3zokxmt-1" edge="1">
                    <mxGeometry relative="1" as="geometry"/>
                </mxCell>
                <mxCell id="T-kB5hm5GkA2p3zokxmt-3" value="" style="edgeStyle=none;html=1;entryX=0.44;entryY=1.033;entryDx=0;entryDy=0;entryPerimeter=0;" parent="9wkIlSxGFb8dEJGIH2XC-1" source="oN1Ihet6U_s27T4Rhnav-4" target="T-kB5hm5GkA2p3zokxmt-0" edge="1">
                    <mxGeometry relative="1" as="geometry"/>
                </mxCell>
                <mxCell id="oN1Ihet6U_s27T4Rhnav-4" value="comentarios" style="rounded=0;whiteSpace=wrap;html=1;fillColor=#a20025;strokeColor=#6F0000;fontColor=#ffffff;" parent="9wkIlSxGFb8dEJGIH2XC-1" vertex="1">
                    <mxGeometry x="354" y="664" width="103" height="41" as="geometry"/>
                </mxCell>
                <mxCell id="oN1Ihet6U_s27T4Rhnav-12" value="id" style="html=1;dashed=0;whitespace=wrap;shape=mxgraph.dfd.start;" parent="9wkIlSxGFb8dEJGIH2XC-1" vertex="1">
                    <mxGeometry x="543" y="669.5" width="101" height="30" as="geometry"/>
                </mxCell>
                <mxCell id="oN1Ihet6U_s27T4Rhnav-16" value="Comentario" style="html=1;dashed=0;whitespace=wrap;shape=mxgraph.dfd.start;" parent="9wkIlSxGFb8dEJGIH2XC-1" vertex="1">
                    <mxGeometry x="183" y="669.5" width="122" height="30" as="geometry"/>
                </mxCell>
                <mxCell id="zSKisDsd7cf7ZXsYfbCf-0" value="estatus" style="html=1;dashed=0;whitespace=wrap;shape=mxgraph.dfd.start;" parent="9wkIlSxGFb8dEJGIH2XC-1" vertex="1">
                    <mxGeometry x="279.5" y="442" width="100" height="30" as="geometry"/>
                </mxCell>
                <mxCell id="zSKisDsd7cf7ZXsYfbCf-1" value="etiquetas" style="html=1;dashed=0;whitespace=wrap;shape=mxgraph.dfd.start;" parent="9wkIlSxGFb8dEJGIH2XC-1" vertex="1">
                    <mxGeometry x="163.5" y="341" width="130" height="30" as="geometry"/>
                </mxCell>
                <mxCell id="zSKisDsd7cf7ZXsYfbCf-2" value="fecha_publicacion" style="html=1;dashed=0;whitespace=wrap;shape=mxgraph.dfd.start;" parent="9wkIlSxGFb8dEJGIH2XC-1" vertex="1">
                    <mxGeometry x="502.5" y="352" width="128" height="30" as="geometry"/>
                </mxCell>
                <mxCell id="zSKisDsd7cf7ZXsYfbCf-3" value="titulo" style="html=1;dashed=0;whitespace=wrap;shape=mxgraph.dfd.start;fillColor=none;strokeColor=#FFFFFF;fontColor=#ffffff;gradientColor=#ffffff;" parent="9wkIlSxGFb8dEJGIH2XC-1" vertex="1">
                    <mxGeometry x="303.5" y="294" width="76" height="30" as="geometry"/>
                </mxCell>
                <mxCell id="zSKisDsd7cf7ZXsYfbCf-4" value="contenido" style="html=1;dashed=0;whitespace=wrap;shape=mxgraph.dfd.start;" parent="9wkIlSxGFb8dEJGIH2XC-1" vertex="1">
                    <mxGeometry x="392.5" y="440" width="85" height="30" as="geometry"/>
                </mxCell>
                <mxCell id="zSKisDsd7cf7ZXsYfbCf-5" value="" style="edgeStyle=none;html=1;" parent="9wkIlSxGFb8dEJGIH2XC-1" source="zSKisDsd7cf7ZXsYfbCf-10" target="zSKisDsd7cf7ZXsYfbCf-3" edge="1">
                    <mxGeometry relative="1" as="geometry"/>
                </mxCell>
                <mxCell id="zSKisDsd7cf7ZXsYfbCf-6" value="" style="edgeStyle=none;html=1;" parent="9wkIlSxGFb8dEJGIH2XC-1" source="zSKisDsd7cf7ZXsYfbCf-10" target="zSKisDsd7cf7ZXsYfbCf-2" edge="1">
                    <mxGeometry relative="1" as="geometry"/>
                </mxCell>
                <mxCell id="zSKisDsd7cf7ZXsYfbCf-7" style="edgeStyle=none;html=1;entryX=0.5;entryY=0.5;entryDx=0;entryDy=-15;entryPerimeter=0;" parent="9wkIlSxGFb8dEJGIH2XC-1" source="zSKisDsd7cf7ZXsYfbCf-10" target="zSKisDsd7cf7ZXsYfbCf-0" edge="1">
                    <mxGeometry relative="1" as="geometry"/>
                </mxCell>
                <mxCell id="zSKisDsd7cf7ZXsYfbCf-8" value="" style="edgeStyle=none;html=1;" parent="9wkIlSxGFb8dEJGIH2XC-1" source="zSKisDsd7cf7ZXsYfbCf-10" edge="1">
                    <mxGeometry relative="1" as="geometry">
                        <mxPoint x="306.5" y="368" as="targetPoint"/>
                    </mxGeometry>
                </mxCell>
                <mxCell id="zSKisDsd7cf7ZXsYfbCf-9" style="edgeStyle=none;html=1;entryX=0.5;entryY=0.5;entryDx=0;entryDy=-15;entryPerimeter=0;" parent="9wkIlSxGFb8dEJGIH2XC-1" source="zSKisDsd7cf7ZXsYfbCf-10" target="zSKisDsd7cf7ZXsYfbCf-4" edge="1">
                    <mxGeometry relative="1" as="geometry"/>
                </mxCell>
                <mxCell id="68ZdekzroMuxXxPGzCs3-1" value="" style="edgeStyle=none;html=1;" edge="1" parent="9wkIlSxGFb8dEJGIH2XC-1" source="zSKisDsd7cf7ZXsYfbCf-10" target="68ZdekzroMuxXxPGzCs3-0">
                    <mxGeometry relative="1" as="geometry"/>
                </mxCell>
                <mxCell id="zSKisDsd7cf7ZXsYfbCf-10" value="posts" style="rounded=0;whiteSpace=wrap;html=1;fillColor=#a20025;strokeColor=#6F0000;fontColor=#ffffff;" parent="9wkIlSxGFb8dEJGIH2XC-1" vertex="1">
                    <mxGeometry x="335.5" y="362" width="120" height="42" as="geometry"/>
                </mxCell>
                <mxCell id="ipU3ICNBWLIdkFZe6pB1-2" value="id" style="html=1;dashed=0;whitespace=wrap;shape=mxgraph.dfd.start;" parent="9wkIlSxGFb8dEJGIH2XC-1" vertex="1">
                    <mxGeometry x="179.5" y="133" width="100" height="30" as="geometry"/>
                </mxCell>
                <mxCell id="ipU3ICNBWLIdkFZe6pB1-4" value="password" style="html=1;dashed=0;whitespace=wrap;shape=mxgraph.dfd.start;" parent="9wkIlSxGFb8dEJGIH2XC-1" vertex="1">
                    <mxGeometry x="502.5" y="133" width="104.5" height="30" as="geometry"/>
                </mxCell>
                <mxCell id="ipU3ICNBWLIdkFZe6pB1-5" value="login" style="html=1;dashed=0;whitespace=wrap;shape=mxgraph.dfd.start;fillColor=none;strokeColor=#FFFFFF;fontColor=#ffffff;gradientColor=#ffffff;" parent="9wkIlSxGFb8dEJGIH2XC-1" vertex="1">
                    <mxGeometry x="328" y="61" width="130" height="30" as="geometry"/>
                </mxCell>
                <mxCell id="ipU3ICNBWLIdkFZe6pB1-6" value="email" style="html=1;dashed=0;whitespace=wrap;shape=mxgraph.dfd.start;" parent="9wkIlSxGFb8dEJGIH2XC-1" vertex="1">
                    <mxGeometry x="350.5" y="206" width="85" height="30" as="geometry"/>
                </mxCell>
                <mxCell id="ipU3ICNBWLIdkFZe6pB1-7" value="" style="edgeStyle=none;html=1;" parent="9wkIlSxGFb8dEJGIH2XC-1" source="ipU3ICNBWLIdkFZe6pB1-12" target="ipU3ICNBWLIdkFZe6pB1-5" edge="1">
                    <mxGeometry relative="1" as="geometry"/>
                </mxCell>
                <mxCell id="ipU3ICNBWLIdkFZe6pB1-8" value="" style="edgeStyle=none;html=1;" parent="9wkIlSxGFb8dEJGIH2XC-1" source="ipU3ICNBWLIdkFZe6pB1-12" target="ipU3ICNBWLIdkFZe6pB1-4" edge="1">
                    <mxGeometry relative="1" as="geometry"/>
                </mxCell>
                <mxCell id="ipU3ICNBWLIdkFZe6pB1-9" style="edgeStyle=none;html=1;entryX=1;entryY=0.5;entryDx=0;entryDy=0;entryPerimeter=0;" parent="9wkIlSxGFb8dEJGIH2XC-1" source="ipU3ICNBWLIdkFZe6pB1-12" target="ipU3ICNBWLIdkFZe6pB1-2" edge="1">
                    <mxGeometry relative="1" as="geometry"/>
                </mxCell>
                <mxCell id="ipU3ICNBWLIdkFZe6pB1-11" style="edgeStyle=none;html=1;entryX=0.5;entryY=0.5;entryDx=0;entryDy=-15;entryPerimeter=0;" parent="9wkIlSxGFb8dEJGIH2XC-1" source="ipU3ICNBWLIdkFZe6pB1-12" target="ipU3ICNBWLIdkFZe6pB1-6" edge="1">
                    <mxGeometry relative="1" as="geometry"/>
                </mxCell>
                <mxCell id="ipU3ICNBWLIdkFZe6pB1-12" value="usuarios" style="rounded=0;whiteSpace=wrap;html=1;fillColor=#a20025;strokeColor=#6F0000;fontColor=#ffffff;" parent="9wkIlSxGFb8dEJGIH2XC-1" vertex="1">
                    <mxGeometry x="333" y="127" width="120" height="42" as="geometry"/>
                </mxCell>
                <mxCell id="MlpwB0HbqTSOyQejxOI2-0" style="edgeStyle=none;html=1;entryX=1;entryY=0.5;entryDx=0;entryDy=0;entryPerimeter=0;" parent="9wkIlSxGFb8dEJGIH2XC-1" source="MlpwB0HbqTSOyQejxOI2-2" target="MlpwB0HbqTSOyQejxOI2-3" edge="1">
                    <mxGeometry relative="1" as="geometry"/>
                </mxCell>
                <mxCell id="MlpwB0HbqTSOyQejxOI2-1" style="edgeStyle=none;html=1;entryX=0;entryY=0.5;entryDx=0;entryDy=0;entryPerimeter=0;" parent="9wkIlSxGFb8dEJGIH2XC-1" source="MlpwB0HbqTSOyQejxOI2-2" target="MlpwB0HbqTSOyQejxOI2-4" edge="1">
                    <mxGeometry relative="1" as="geometry"/>
                </mxCell>
                <mxCell id="MlpwB0HbqTSOyQejxOI2-2" value="categorias" style="rounded=0;whiteSpace=wrap;html=1;fillColor=#a20025;strokeColor=#6F0000;fontColor=#ffffff;" parent="9wkIlSxGFb8dEJGIH2XC-1" vertex="1">
                    <mxGeometry x="343" y="809" width="103" height="41" as="geometry"/>
                </mxCell>
                <mxCell id="MlpwB0HbqTSOyQejxOI2-3" value="id" style="html=1;dashed=0;whitespace=wrap;shape=mxgraph.dfd.start;" parent="9wkIlSxGFb8dEJGIH2XC-1" vertex="1">
                    <mxGeometry x="173" y="814.5" width="101" height="30" as="geometry"/>
                </mxCell>
                <mxCell id="MlpwB0HbqTSOyQejxOI2-4" value="categoria" style="html=1;dashed=0;whitespace=wrap;shape=mxgraph.dfd.start;" parent="9wkIlSxGFb8dEJGIH2XC-1" vertex="1">
                    <mxGeometry x="533" y="814.5" width="122" height="30" as="geometry"/>
                </mxCell>
                <mxCell id="5W6wvgyQTSGqqlZXyIdb-0" style="edgeStyle=none;html=1;entryX=1;entryY=0.5;entryDx=0;entryDy=0;entryPerimeter=0;" parent="9wkIlSxGFb8dEJGIH2XC-1" source="5W6wvgyQTSGqqlZXyIdb-2" target="5W6wvgyQTSGqqlZXyIdb-3" edge="1">
                    <mxGeometry relative="1" as="geometry"/>
                </mxCell>
                <mxCell id="5W6wvgyQTSGqqlZXyIdb-1" style="edgeStyle=none;html=1;entryX=0;entryY=0.5;entryDx=0;entryDy=0;entryPerimeter=0;" parent="9wkIlSxGFb8dEJGIH2XC-1" source="5W6wvgyQTSGqqlZXyIdb-2" target="5W6wvgyQTSGqqlZXyIdb-4" edge="1">
                    <mxGeometry relative="1" as="geometry"/>
                </mxCell>
                <mxCell id="5W6wvgyQTSGqqlZXyIdb-2" value="etiquetas" style="rounded=0;whiteSpace=wrap;html=1;fillColor=#a20025;strokeColor=#6F0000;fontColor=#ffffff;" parent="9wkIlSxGFb8dEJGIH2XC-1" vertex="1">
                    <mxGeometry x="343" y="1010" width="103" height="41" as="geometry"/>
                </mxCell>
                <mxCell id="5W6wvgyQTSGqqlZXyIdb-3" value="id" style="html=1;dashed=0;whitespace=wrap;shape=mxgraph.dfd.start;" parent="9wkIlSxGFb8dEJGIH2XC-1" vertex="1">
                    <mxGeometry x="173" y="1015.5" width="101" height="30" as="geometry"/>
                </mxCell>
                <mxCell id="5W6wvgyQTSGqqlZXyIdb-4" value="nombre_etiqueta" style="html=1;dashed=0;whitespace=wrap;shape=mxgraph.dfd.start;" parent="9wkIlSxGFb8dEJGIH2XC-1" vertex="1">
                    <mxGeometry x="533" y="1015.5" width="122" height="30" as="geometry"/>
                </mxCell>
                <mxCell id="T-kB5hm5GkA2p3zokxmt-0" value="usuarios_id" style="html=1;dashed=0;whitespace=wrap;shape=mxgraph.dfd.start;" parent="9wkIlSxGFb8dEJGIH2XC-1" vertex="1">
                    <mxGeometry x="268" y="580" width="100" height="30" as="geometry"/>
                </mxCell>
                <mxCell id="T-kB5hm5GkA2p3zokxmt-1" value="posts_id" style="html=1;dashed=0;whitespace=wrap;shape=mxgraph.dfd.start;" parent="9wkIlSxGFb8dEJGIH2XC-1" vertex="1">
                    <mxGeometry x="434" y="578" width="100" height="30" as="geometry"/>
                </mxCell>
                <mxCell id="68ZdekzroMuxXxPGzCs3-0" value="id" style="html=1;dashed=0;whitespace=wrap;shape=mxgraph.dfd.start;fillColor=none;strokeColor=#FFFFFF;fontColor=#ffffff;gradientColor=#ffffff;" vertex="1" parent="9wkIlSxGFb8dEJGIH2XC-1">
                    <mxGeometry x="426" y="296" width="75" height="30" as="geometry"/>
                </mxCell>
            </root>
        </mxGraphModel>
    </diagram>
    <diagram id="WRW_e0lrgP1qpMRzWdj8" name="Relaciones">
        <mxGraphModel dx="1066" dy="612" grid="0" gridSize="10" guides="1" tooltips="1" connect="1" arrows="1" fold="1" page="1" pageScale="1" pageWidth="827" pageHeight="1169" math="0" shadow="0">
            <root>
                <mxCell id="qhngqjQf-g7hmu552MWx-0"/>
                <mxCell id="qhngqjQf-g7hmu552MWx-1" parent="qhngqjQf-g7hmu552MWx-0"/>
                <mxCell id="BC_7M0RZwd7SVrmDZgXZ-0" value="" style="edgeStyle=none;html=1;endArrow=none;endFill=0;" parent="qhngqjQf-g7hmu552MWx-1" source="BC_7M0RZwd7SVrmDZgXZ-1" target="BC_7M0RZwd7SVrmDZgXZ-5" edge="1">
                    <mxGeometry relative="1" as="geometry"/>
                </mxCell>
                <mxCell id="BC_7M0RZwd7SVrmDZgXZ-1" value="comentarios" style="rounded=0;whiteSpace=wrap;html=1;fillColor=#a20025;strokeColor=#6F0000;fontColor=#ffffff;" parent="qhngqjQf-g7hmu552MWx-1" vertex="1">
                    <mxGeometry x="451" y="165" width="120" height="38" as="geometry"/>
                </mxCell>
                <mxCell id="BC_7M0RZwd7SVrmDZgXZ-2" value="" style="edgeStyle=none;html=1;fontSize=14;endArrow=none;endFill=0;exitX=1;exitY=0.5;exitDx=0;exitDy=0;" parent="qhngqjQf-g7hmu552MWx-1" source="BC_7M0RZwd7SVrmDZgXZ-3" target="BC_7M0RZwd7SVrmDZgXZ-9" edge="1">
                    <mxGeometry relative="1" as="geometry"/>
                </mxCell>
                <mxCell id="BC_7M0RZwd7SVrmDZgXZ-3" value="usuarios" style="rounded=0;whiteSpace=wrap;html=1;fillColor=#a20025;strokeColor=#6F0000;fontColor=#ffffff;" parent="qhngqjQf-g7hmu552MWx-1" vertex="1">
                    <mxGeometry x="119" y="166" width="122" height="37" as="geometry"/>
                </mxCell>
                <mxCell id="LXPoG8iGqxFJTNCcjlep-3" value="" style="edgeStyle=none;html=1;endArrow=none;endFill=0;entryX=1;entryY=0.5;entryDx=0;entryDy=0;" parent="qhngqjQf-g7hmu552MWx-1" target="LXPoG8iGqxFJTNCcjlep-1" edge="1">
                    <mxGeometry relative="1" as="geometry">
                        <mxPoint x="288" y="287" as="sourcePoint"/>
                    </mxGeometry>
                </mxCell>
                <mxCell id="LXPoG8iGqxFJTNCcjlep-9" value="" style="edgeStyle=none;html=1;endArrow=none;endFill=0;exitX=0.25;exitY=1;exitDx=0;exitDy=0;entryX=1;entryY=0.5;entryDx=0;entryDy=0;" parent="qhngqjQf-g7hmu552MWx-1" source="BC_7M0RZwd7SVrmDZgXZ-4" target="LXPoG8iGqxFJTNCcjlep-5" edge="1">
                    <mxGeometry relative="1" as="geometry">
                        <mxPoint x="309" y="397" as="targetPoint"/>
                        <Array as="points">
                            <mxPoint x="322" y="399"/>
                        </Array>
                    </mxGeometry>
                </mxCell>
                <mxCell id="BC_7M0RZwd7SVrmDZgXZ-4" value="posts" style="rounded=0;whiteSpace=wrap;html=1;fillColor=#a20025;strokeColor=#6F0000;fontColor=#ffffff;" parent="qhngqjQf-g7hmu552MWx-1" vertex="1">
                    <mxGeometry x="292" y="272" width="120" height="40" as="geometry"/>
                </mxCell>
                <mxCell id="BC_7M0RZwd7SVrmDZgXZ-6" value="" style="endArrow=none;html=1;entryX=1;entryY=0.5;entryDx=0;entryDy=0;endFill=0;startArrow=none;" parent="qhngqjQf-g7hmu552MWx-1" source="BC_7M0RZwd7SVrmDZgXZ-5" target="BC_7M0RZwd7SVrmDZgXZ-4" edge="1">
                    <mxGeometry width="50" height="50" relative="1" as="geometry">
                        <mxPoint x="540" y="292" as="sourcePoint"/>
                        <mxPoint x="780" y="499" as="targetPoint"/>
                    </mxGeometry>
                </mxCell>
                <mxCell id="BC_7M0RZwd7SVrmDZgXZ-7" value="&lt;span style=&quot;font-weight: normal&quot;&gt;&lt;font style=&quot;font-size: 14px&quot;&gt;1:N&lt;/font&gt;&lt;/span&gt;" style="text;strokeColor=none;fillColor=none;html=1;fontSize=24;fontStyle=1;verticalAlign=middle;align=center;" parent="qhngqjQf-g7hmu552MWx-1" vertex="1">
                    <mxGeometry x="518" y="232" width="70" height="30" as="geometry"/>
                </mxCell>
                <mxCell id="BC_7M0RZwd7SVrmDZgXZ-8" value="" style="edgeStyle=none;html=1;fontSize=14;endArrow=none;endFill=0;" parent="qhngqjQf-g7hmu552MWx-1" source="BC_7M0RZwd7SVrmDZgXZ-9" target="BC_7M0RZwd7SVrmDZgXZ-1" edge="1">
                    <mxGeometry relative="1" as="geometry"/>
                </mxCell>
                <mxCell id="BC_7M0RZwd7SVrmDZgXZ-9" value="tiene" style="rhombus;whiteSpace=wrap;html=1;fillColor=#e3c800;strokeColor=#B09500;fontColor=#000000;" parent="qhngqjQf-g7hmu552MWx-1" vertex="1">
                    <mxGeometry x="322" y="159" width="60" height="50" as="geometry"/>
                </mxCell>
                <mxCell id="BC_7M0RZwd7SVrmDZgXZ-10" value="&lt;span style=&quot;font-weight: normal&quot;&gt;&lt;font style=&quot;font-size: 14px&quot;&gt;1:N&lt;/font&gt;&lt;/span&gt;" style="text;strokeColor=none;fillColor=none;html=1;fontSize=24;fontStyle=1;verticalAlign=middle;align=center;" parent="qhngqjQf-g7hmu552MWx-1" vertex="1">
                    <mxGeometry x="312" y="121" width="70" height="30" as="geometry"/>
                </mxCell>
                <mxCell id="LXPoG8iGqxFJTNCcjlep-4" value="" style="edgeStyle=none;html=1;endArrow=none;endFill=0;" parent="qhngqjQf-g7hmu552MWx-1" source="LXPoG8iGqxFJTNCcjlep-1" target="BC_7M0RZwd7SVrmDZgXZ-3" edge="1">
                    <mxGeometry relative="1" as="geometry"/>
                </mxCell>
                <mxCell id="LXPoG8iGqxFJTNCcjlep-1" value="escribe" style="rhombus;whiteSpace=wrap;html=1;fillColor=#e3c800;strokeColor=#B09500;fontColor=#000000;" parent="qhngqjQf-g7hmu552MWx-1" vertex="1">
                    <mxGeometry x="150" y="262" width="60" height="50" as="geometry"/>
                </mxCell>
                <mxCell id="LXPoG8iGqxFJTNCcjlep-2" value="&lt;span style=&quot;font-weight: normal&quot;&gt;&lt;font style=&quot;font-size: 14px&quot;&gt;1:N&lt;/font&gt;&lt;/span&gt;" style="text;strokeColor=none;fillColor=none;html=1;fontSize=24;fontStyle=1;verticalAlign=middle;align=center;" parent="qhngqjQf-g7hmu552MWx-1" vertex="1">
                    <mxGeometry x="163" y="225" width="70" height="30" as="geometry"/>
                </mxCell>
                <mxCell id="LXPoG8iGqxFJTNCcjlep-14" value="" style="edgeStyle=none;html=1;endArrow=none;endFill=0;" parent="qhngqjQf-g7hmu552MWx-1" source="LXPoG8iGqxFJTNCcjlep-5" target="LXPoG8iGqxFJTNCcjlep-11" edge="1">
                    <mxGeometry relative="1" as="geometry"/>
                </mxCell>
                <mxCell id="LXPoG8iGqxFJTNCcjlep-5" value="tiene" style="rhombus;whiteSpace=wrap;html=1;fillColor=#e3c800;strokeColor=#B09500;fontColor=#000000;" parent="qhngqjQf-g7hmu552MWx-1" vertex="1">
                    <mxGeometry x="258" y="374" width="60" height="50" as="geometry"/>
                </mxCell>
                <mxCell id="LXPoG8iGqxFJTNCcjlep-13" value="" style="edgeStyle=none;html=1;endArrow=none;endFill=0;" parent="qhngqjQf-g7hmu552MWx-1" source="LXPoG8iGqxFJTNCcjlep-6" target="LXPoG8iGqxFJTNCcjlep-12" edge="1">
                    <mxGeometry relative="1" as="geometry"/>
                </mxCell>
                <mxCell id="LXPoG8iGqxFJTNCcjlep-6" value="tiene" style="rhombus;whiteSpace=wrap;html=1;fillColor=#e3c800;strokeColor=#B09500;fontColor=#000000;" parent="qhngqjQf-g7hmu552MWx-1" vertex="1">
                    <mxGeometry x="402" y="374" width="60" height="50" as="geometry"/>
                </mxCell>
                <mxCell id="LXPoG8iGqxFJTNCcjlep-7" value="&lt;span style=&quot;font-weight: normal&quot;&gt;&lt;font style=&quot;font-size: 14px&quot;&gt;1:N&lt;/font&gt;&lt;/span&gt;" style="text;strokeColor=none;fillColor=none;html=1;fontSize=24;fontStyle=1;verticalAlign=middle;align=center;" parent="qhngqjQf-g7hmu552MWx-1" vertex="1">
                    <mxGeometry x="205" y="348" width="70" height="30" as="geometry"/>
                </mxCell>
                <mxCell id="LXPoG8iGqxFJTNCcjlep-8" value="&lt;span style=&quot;font-weight: normal&quot;&gt;&lt;font style=&quot;font-size: 14px&quot;&gt;N:N&lt;/font&gt;&lt;/span&gt;" style="text;strokeColor=none;fillColor=none;html=1;fontSize=24;fontStyle=1;verticalAlign=middle;align=center;" parent="qhngqjQf-g7hmu552MWx-1" vertex="1">
                    <mxGeometry x="417" y="339" width="70" height="30" as="geometry"/>
                </mxCell>
                <mxCell id="LXPoG8iGqxFJTNCcjlep-10" value="" style="edgeStyle=none;html=1;endArrow=none;endFill=0;exitX=0.25;exitY=1;exitDx=0;exitDy=0;entryX=0;entryY=0.5;entryDx=0;entryDy=0;" parent="qhngqjQf-g7hmu552MWx-1" target="LXPoG8iGqxFJTNCcjlep-6" edge="1">
                    <mxGeometry relative="1" as="geometry">
                        <mxPoint x="380" y="312" as="sourcePoint"/>
                        <mxPoint x="339" y="399" as="targetPoint"/>
                        <Array as="points">
                            <mxPoint x="380" y="399"/>
                        </Array>
                    </mxGeometry>
                </mxCell>
                <mxCell id="LXPoG8iGqxFJTNCcjlep-11" value="categorias" style="rounded=0;whiteSpace=wrap;html=1;fillColor=#a20025;strokeColor=#6F0000;fontColor=#ffffff;" parent="qhngqjQf-g7hmu552MWx-1" vertex="1">
                    <mxGeometry x="86" y="379" width="106" height="40" as="geometry"/>
                </mxCell>
                <mxCell id="LXPoG8iGqxFJTNCcjlep-12" value="etiquetas" style="rounded=0;whiteSpace=wrap;html=1;fillColor=#a20025;strokeColor=#6F0000;fontColor=#ffffff;" parent="qhngqjQf-g7hmu552MWx-1" vertex="1">
                    <mxGeometry x="521" y="378" width="113" height="40" as="geometry"/>
                </mxCell>
                <mxCell id="LXPoG8iGqxFJTNCcjlep-15" value="" style="endArrow=none;html=1;entryX=1;entryY=0.5;entryDx=0;entryDy=0;endFill=0;" parent="qhngqjQf-g7hmu552MWx-1" target="BC_7M0RZwd7SVrmDZgXZ-5" edge="1">
                    <mxGeometry width="50" height="50" relative="1" as="geometry">
                        <mxPoint x="540" y="292" as="sourcePoint"/>
                        <mxPoint x="412" y="292" as="targetPoint"/>
                    </mxGeometry>
                </mxCell>
                <mxCell id="BC_7M0RZwd7SVrmDZgXZ-5" value="tiene" style="rhombus;whiteSpace=wrap;html=1;fillColor=#e3c800;strokeColor=#B09500;fontColor=#000000;" parent="qhngqjQf-g7hmu552MWx-1" vertex="1">
                    <mxGeometry x="481" y="267" width="60" height="50" as="geometry"/>
                </mxCell>
            </root>
        </mxGraphModel>
    </diagram>
    <diagram id="r90CG0MxxtD7ncEJe34H" name="Diagrama E-R">
        <mxGraphModel dx="1066" dy="612" grid="0" gridSize="10" guides="1" tooltips="1" connect="1" arrows="1" fold="1" page="1" pageScale="1" pageWidth="827" pageHeight="1169" math="0" shadow="0">
            <root>
                <mxCell id="IC6CjiGGvlEDifJ1MJYV-0"/>
                <mxCell id="IC6CjiGGvlEDifJ1MJYV-1" parent="IC6CjiGGvlEDifJ1MJYV-0"/>
                <mxCell id="9b0Moi793ojgQH9rolza-0" value="usuarios" style="swimlane;fontStyle=0;childLayout=stackLayout;horizontal=1;startSize=26;fillColor=none;horizontalStack=0;resizeParent=1;resizeParentMax=0;resizeLast=0;collapsible=1;marginBottom=0;" parent="IC6CjiGGvlEDifJ1MJYV-1" vertex="1">
                    <mxGeometry x="82" y="104" width="220" height="156" as="geometry"/>
                </mxCell>
                <mxCell id="9b0Moi793ojgQH9rolza-1" value="id: Integer (PK)" style="text;strokeColor=none;fillColor=none;align=left;verticalAlign=top;spacingLeft=4;spacingRight=4;overflow=hidden;rotatable=0;points=[[0,0.5],[1,0.5]];portConstraint=eastwest;" parent="9b0Moi793ojgQH9rolza-0" vertex="1">
                    <mxGeometry y="26" width="220" height="26" as="geometry"/>
                </mxCell>
                <mxCell id="9b0Moi793ojgQH9rolza-2" value="login: VARCHAR (30)  NN" style="text;strokeColor=none;fillColor=none;align=left;verticalAlign=top;spacingLeft=4;spacingRight=4;overflow=hidden;rotatable=0;points=[[0,0.5],[1,0.5]];portConstraint=eastwest;" parent="9b0Moi793ojgQH9rolza-0" vertex="1">
                    <mxGeometry y="52" width="220" height="26" as="geometry"/>
                </mxCell>
                <mxCell id="9b0Moi793ojgQH9rolza-3" value="password:VARCHAR (30) NN" style="text;strokeColor=none;fillColor=none;align=left;verticalAlign=top;spacingLeft=4;spacingRight=4;overflow=hidden;rotatable=0;points=[[0,0.5],[1,0.5]];portConstraint=eastwest;" parent="9b0Moi793ojgQH9rolza-0" vertex="1">
                    <mxGeometry y="78" width="220" height="26" as="geometry"/>
                </mxCell>
                <mxCell id="AnNMgFc1DkqKfCdnixgv-1" value="nickname:VARCHAR (40) NN" style="text;strokeColor=none;fillColor=none;align=left;verticalAlign=top;spacingLeft=4;spacingRight=4;overflow=hidden;rotatable=0;points=[[0,0.5],[1,0.5]];portConstraint=eastwest;" parent="9b0Moi793ojgQH9rolza-0" vertex="1">
                    <mxGeometry y="104" width="220" height="26" as="geometry"/>
                </mxCell>
                <mxCell id="UeNubtmWDF6grxcIPzkH-0" value="email: VARCHAR (40) " style="text;strokeColor=none;fillColor=none;align=left;verticalAlign=top;spacingLeft=4;spacingRight=4;overflow=hidden;rotatable=0;points=[[0,0.5],[1,0.5]];portConstraint=eastwest;" parent="9b0Moi793ojgQH9rolza-0" vertex="1">
                    <mxGeometry y="130" width="220" height="26" as="geometry"/>
                </mxCell>
                <mxCell id="9b0Moi793ojgQH9rolza-4" value="posts" style="swimlane;fontStyle=0;childLayout=stackLayout;horizontal=1;startSize=26;fillColor=none;horizontalStack=0;resizeParent=1;resizeParentMax=0;resizeLast=0;collapsible=1;marginBottom=0;" parent="IC6CjiGGvlEDifJ1MJYV-1" vertex="1">
                    <mxGeometry x="314" y="326" width="210" height="208" as="geometry"/>
                </mxCell>
                <mxCell id="9b0Moi793ojgQH9rolza-5" value="id: Integer (PK)" style="text;strokeColor=none;fillColor=none;align=left;verticalAlign=top;spacingLeft=4;spacingRight=4;overflow=hidden;rotatable=0;points=[[0,0.5],[1,0.5]];portConstraint=eastwest;" parent="9b0Moi793ojgQH9rolza-4" vertex="1">
                    <mxGeometry y="26" width="210" height="26" as="geometry"/>
                </mxCell>
                <mxCell id="9b0Moi793ojgQH9rolza-6" value="titulo: VARCHAR(150)" style="text;strokeColor=none;fillColor=none;align=left;verticalAlign=top;spacingLeft=4;spacingRight=4;overflow=hidden;rotatable=0;points=[[0,0.5],[1,0.5]];portConstraint=eastwest;" parent="9b0Moi793ojgQH9rolza-4" vertex="1">
                    <mxGeometry y="52" width="210" height="26" as="geometry"/>
                </mxCell>
                <mxCell id="9b0Moi793ojgQH9rolza-7" value="contenido: TEXTO" style="text;strokeColor=none;fillColor=none;align=left;verticalAlign=top;spacingLeft=4;spacingRight=4;overflow=hidden;rotatable=0;points=[[0,0.5],[1,0.5]];portConstraint=eastwest;" parent="9b0Moi793ojgQH9rolza-4" vertex="1">
                    <mxGeometry y="78" width="210" height="26" as="geometry"/>
                </mxCell>
                <mxCell id="_83vSkAFIZXPOVxfzeIm-1" value="fecha_ publicación (TIMESTAMP)" style="text;strokeColor=none;fillColor=none;align=left;verticalAlign=top;spacingLeft=4;spacingRight=4;overflow=hidden;rotatable=0;points=[[0,0.5],[1,0.5]];portConstraint=eastwest;" parent="9b0Moi793ojgQH9rolza-4" vertex="1">
                    <mxGeometry y="104" width="210" height="26" as="geometry"/>
                </mxCell>
                <mxCell id="_83vSkAFIZXPOVxfzeIm-0" value="estatus: CHAR(8)" style="text;strokeColor=none;fillColor=none;align=left;verticalAlign=top;spacingLeft=4;spacingRight=4;overflow=hidden;rotatable=0;points=[[0,0.5],[1,0.5]];portConstraint=eastwest;" parent="9b0Moi793ojgQH9rolza-4" vertex="1">
                    <mxGeometry y="130" width="210" height="26" as="geometry"/>
                </mxCell>
                <mxCell id="Ijqdcul1QQ6qJ8TGQ8G--24" value="usuarios_id (FK)" style="text;strokeColor=none;fillColor=none;align=left;verticalAlign=top;spacingLeft=4;spacingRight=4;overflow=hidden;rotatable=0;points=[[0,0.5],[1,0.5]];portConstraint=eastwest;" parent="9b0Moi793ojgQH9rolza-4" vertex="1">
                    <mxGeometry y="156" width="210" height="26" as="geometry"/>
                </mxCell>
                <mxCell id="UeNubtmWDF6grxcIPzkH-1" value="categorias_id (FK)" style="text;strokeColor=none;fillColor=none;align=left;verticalAlign=top;spacingLeft=4;spacingRight=4;overflow=hidden;rotatable=0;points=[[0,0.5],[1,0.5]];portConstraint=eastwest;" parent="9b0Moi793ojgQH9rolza-4" vertex="1">
                    <mxGeometry y="182" width="210" height="26" as="geometry"/>
                </mxCell>
                <mxCell id="9b0Moi793ojgQH9rolza-8" value="Categoria" style="swimlane;fontStyle=0;childLayout=stackLayout;horizontal=1;startSize=26;fillColor=none;horizontalStack=0;resizeParent=1;resizeParentMax=0;resizeLast=0;collapsible=1;marginBottom=0;" parent="IC6CjiGGvlEDifJ1MJYV-1" vertex="1">
                    <mxGeometry x="82" y="598" width="169" height="78" as="geometry"/>
                </mxCell>
                <mxCell id="9b0Moi793ojgQH9rolza-9" value="id: Integer (PK)" style="text;strokeColor=none;fillColor=none;align=left;verticalAlign=top;spacingLeft=4;spacingRight=4;overflow=hidden;rotatable=0;points=[[0,0.5],[1,0.5]];portConstraint=eastwest;" parent="9b0Moi793ojgQH9rolza-8" vertex="1">
                    <mxGeometry y="26" width="169" height="26" as="geometry"/>
                </mxCell>
                <mxCell id="9b0Moi793ojgQH9rolza-10" value="categoria: VARCHAR(30)" style="text;strokeColor=none;fillColor=none;align=left;verticalAlign=top;spacingLeft=4;spacingRight=4;overflow=hidden;rotatable=0;points=[[0,0.5],[1,0.5]];portConstraint=eastwest;" parent="9b0Moi793ojgQH9rolza-8" vertex="1">
                    <mxGeometry y="52" width="169" height="26" as="geometry"/>
                </mxCell>
                <mxCell id="Ijqdcul1QQ6qJ8TGQ8G--6" value="comentarios" style="swimlane;fontStyle=0;childLayout=stackLayout;horizontal=1;startSize=26;fillColor=none;horizontalStack=0;resizeParent=1;resizeParentMax=0;resizeLast=0;collapsible=1;marginBottom=0;" parent="IC6CjiGGvlEDifJ1MJYV-1" vertex="1">
                    <mxGeometry x="556.5" y="104" width="210" height="130" as="geometry"/>
                </mxCell>
                <mxCell id="Ijqdcul1QQ6qJ8TGQ8G--7" value="id: Integer (PK)" style="text;strokeColor=none;fillColor=none;align=left;verticalAlign=top;spacingLeft=4;spacingRight=4;overflow=hidden;rotatable=0;points=[[0,0.5],[1,0.5]];portConstraint=eastwest;" parent="Ijqdcul1QQ6qJ8TGQ8G--6" vertex="1">
                    <mxGeometry y="26" width="210" height="26" as="geometry"/>
                </mxCell>
                <mxCell id="Ijqdcul1QQ6qJ8TGQ8G--8" value="comentario: TEXT" style="text;strokeColor=none;fillColor=none;align=left;verticalAlign=top;spacingLeft=4;spacingRight=4;overflow=hidden;rotatable=0;points=[[0,0.5],[1,0.5]];portConstraint=eastwest;" parent="Ijqdcul1QQ6qJ8TGQ8G--6" vertex="1">
                    <mxGeometry y="52" width="210" height="26" as="geometry"/>
                </mxCell>
                <mxCell id="Ijqdcul1QQ6qJ8TGQ8G--9" value="usuarios_id: INTEGER" style="text;strokeColor=none;fillColor=none;align=left;verticalAlign=top;spacingLeft=4;spacingRight=4;overflow=hidden;rotatable=0;points=[[0,0.5],[1,0.5]];portConstraint=eastwest;" parent="Ijqdcul1QQ6qJ8TGQ8G--6" vertex="1">
                    <mxGeometry y="78" width="210" height="26" as="geometry"/>
                </mxCell>
                <mxCell id="Ijqdcul1QQ6qJ8TGQ8G--10" value="post_id: INTEGER" style="text;strokeColor=none;fillColor=none;align=left;verticalAlign=top;spacingLeft=4;spacingRight=4;overflow=hidden;rotatable=0;points=[[0,0.5],[1,0.5]];portConstraint=eastwest;" parent="Ijqdcul1QQ6qJ8TGQ8G--6" vertex="1">
                    <mxGeometry y="104" width="210" height="26" as="geometry"/>
                </mxCell>
                <mxCell id="UeNubtmWDF6grxcIPzkH-2" value="etiquetas" style="swimlane;fontStyle=0;childLayout=stackLayout;horizontal=1;startSize=26;fillColor=none;horizontalStack=0;resizeParent=1;resizeParentMax=0;resizeLast=0;collapsible=1;marginBottom=0;" parent="IC6CjiGGvlEDifJ1MJYV-1" vertex="1">
                    <mxGeometry x="564" y="598" width="195" height="78" as="geometry"/>
                </mxCell>
                <mxCell id="UeNubtmWDF6grxcIPzkH-3" value="id: Integer (PK)" style="text;strokeColor=none;fillColor=none;align=left;verticalAlign=top;spacingLeft=4;spacingRight=4;overflow=hidden;rotatable=0;points=[[0,0.5],[1,0.5]];portConstraint=eastwest;" parent="UeNubtmWDF6grxcIPzkH-2" vertex="1">
                    <mxGeometry y="26" width="195" height="26" as="geometry"/>
                </mxCell>
                <mxCell id="UeNubtmWDF6grxcIPzkH-4" value="nombre_etiqueta: VARCHAR(30)" style="text;strokeColor=none;fillColor=none;align=left;verticalAlign=top;spacingLeft=4;spacingRight=4;overflow=hidden;rotatable=0;points=[[0,0.5],[1,0.5]];portConstraint=eastwest;" parent="UeNubtmWDF6grxcIPzkH-2" vertex="1">
                    <mxGeometry y="52" width="195" height="26" as="geometry"/>
                </mxCell>
                <mxCell id="UeNubtmWDF6grxcIPzkH-7" value="" style="edgeStyle=entityRelationEdgeStyle;fontSize=12;html=1;endArrow=ERzeroToMany;startArrow=ERzeroToOne;exitX=0.409;exitY=1.154;exitDx=0;exitDy=0;exitPerimeter=0;entryX=0;entryY=0.5;entryDx=0;entryDy=0;" parent="IC6CjiGGvlEDifJ1MJYV-1" source="UeNubtmWDF6grxcIPzkH-0" target="9b0Moi793ojgQH9rolza-5" edge="1">
                    <mxGeometry width="100" height="100" relative="1" as="geometry">
                        <mxPoint x="147" y="461" as="sourcePoint"/>
                        <mxPoint x="247" y="361" as="targetPoint"/>
                    </mxGeometry>
                </mxCell>
                <mxCell id="UeNubtmWDF6grxcIPzkH-8" value="" style="edgeStyle=entityRelationEdgeStyle;fontSize=12;html=1;endArrow=ERzeroToMany;startArrow=ERzeroToOne;entryX=-0.007;entryY=-0.077;entryDx=0;entryDy=0;entryPerimeter=0;" parent="IC6CjiGGvlEDifJ1MJYV-1" target="Ijqdcul1QQ6qJ8TGQ8G--9" edge="1">
                    <mxGeometry width="100" height="100" relative="1" as="geometry">
                        <mxPoint x="302" y="182" as="sourcePoint"/>
                        <mxPoint x="444.02" y="276" as="targetPoint"/>
                    </mxGeometry>
                </mxCell>
                <mxCell id="UeNubtmWDF6grxcIPzkH-9" value="" style="edgeStyle=entityRelationEdgeStyle;fontSize=12;html=1;endArrow=ERzeroToMany;startArrow=ERzeroToOne;entryX=-0.04;entryY=0.462;entryDx=0;entryDy=0;entryPerimeter=0;" parent="IC6CjiGGvlEDifJ1MJYV-1" target="Ijqdcul1QQ6qJ8TGQ8G--10" edge="1">
                    <mxGeometry width="100" height="100" relative="1" as="geometry">
                        <mxPoint x="520" y="409" as="sourcePoint"/>
                        <mxPoint x="773.03" y="406.99800000000005" as="targetPoint"/>
                    </mxGeometry>
                </mxCell>
                <mxCell id="UeNubtmWDF6grxcIPzkH-10" value="" style="edgeStyle=entityRelationEdgeStyle;fontSize=12;html=1;endArrow=ERzeroToMany;startArrow=ERzeroToOne;exitX=1;exitY=0.5;exitDx=0;exitDy=0;entryX=-0.038;entryY=0.538;entryDx=0;entryDy=0;entryPerimeter=0;" parent="IC6CjiGGvlEDifJ1MJYV-1" source="9b0Moi793ojgQH9rolza-9" target="UeNubtmWDF6grxcIPzkH-1" edge="1">
                    <mxGeometry width="100" height="100" relative="1" as="geometry">
                        <mxPoint x="261" y="512.004" as="sourcePoint"/>
                        <mxPoint x="403.02" y="613" as="targetPoint"/>
                    </mxGeometry>
                </mxCell>
                <mxCell id="UeNubtmWDF6grxcIPzkH-11" value="" style="edgeStyle=entityRelationEdgeStyle;fontSize=12;html=1;endArrow=ERoneToMany;startArrow=ERoneToMany;entryX=0;entryY=0.5;entryDx=0;entryDy=0;exitX=1;exitY=0.5;exitDx=0;exitDy=0;" parent="IC6CjiGGvlEDifJ1MJYV-1" source="Ijqdcul1QQ6qJ8TGQ8G--24" target="UeNubtmWDF6grxcIPzkH-3" edge="1">
                    <mxGeometry width="100" height="100" relative="1" as="geometry">
                        <mxPoint x="483" y="518" as="sourcePoint"/>
                        <mxPoint x="583" y="418" as="targetPoint"/>
                    </mxGeometry>
                </mxCell>
                <mxCell id="UeNubtmWDF6grxcIPzkH-12" value="posts" style="swimlane;fontStyle=0;childLayout=stackLayout;horizontal=1;startSize=26;fillColor=none;horizontalStack=0;resizeParent=1;resizeParentMax=0;resizeLast=0;collapsible=1;marginBottom=0;" parent="IC6CjiGGvlEDifJ1MJYV-1" vertex="1">
                    <mxGeometry x="70" y="735" width="210" height="208" as="geometry"/>
                </mxCell>
                <mxCell id="UeNubtmWDF6grxcIPzkH-13" value="id: Integer (PK)" style="text;strokeColor=none;fillColor=none;align=left;verticalAlign=top;spacingLeft=4;spacingRight=4;overflow=hidden;rotatable=0;points=[[0,0.5],[1,0.5]];portConstraint=eastwest;" parent="UeNubtmWDF6grxcIPzkH-12" vertex="1">
                    <mxGeometry y="26" width="210" height="26" as="geometry"/>
                </mxCell>
                <mxCell id="UeNubtmWDF6grxcIPzkH-14" value="titulo: VARCHAR(150)" style="text;strokeColor=none;fillColor=none;align=left;verticalAlign=top;spacingLeft=4;spacingRight=4;overflow=hidden;rotatable=0;points=[[0,0.5],[1,0.5]];portConstraint=eastwest;" parent="UeNubtmWDF6grxcIPzkH-12" vertex="1">
                    <mxGeometry y="52" width="210" height="26" as="geometry"/>
                </mxCell>
                <mxCell id="UeNubtmWDF6grxcIPzkH-15" value="contenido: TEXTO" style="text;strokeColor=none;fillColor=none;align=left;verticalAlign=top;spacingLeft=4;spacingRight=4;overflow=hidden;rotatable=0;points=[[0,0.5],[1,0.5]];portConstraint=eastwest;" parent="UeNubtmWDF6grxcIPzkH-12" vertex="1">
                    <mxGeometry y="78" width="210" height="26" as="geometry"/>
                </mxCell>
                <mxCell id="UeNubtmWDF6grxcIPzkH-16" value="fecha_ publicación (TIMESTAMP)" style="text;strokeColor=none;fillColor=none;align=left;verticalAlign=top;spacingLeft=4;spacingRight=4;overflow=hidden;rotatable=0;points=[[0,0.5],[1,0.5]];portConstraint=eastwest;" parent="UeNubtmWDF6grxcIPzkH-12" vertex="1">
                    <mxGeometry y="104" width="210" height="26" as="geometry"/>
                </mxCell>
                <mxCell id="UeNubtmWDF6grxcIPzkH-17" value="estatus: CHAR(8)" style="text;strokeColor=none;fillColor=none;align=left;verticalAlign=top;spacingLeft=4;spacingRight=4;overflow=hidden;rotatable=0;points=[[0,0.5],[1,0.5]];portConstraint=eastwest;" parent="UeNubtmWDF6grxcIPzkH-12" vertex="1">
                    <mxGeometry y="130" width="210" height="26" as="geometry"/>
                </mxCell>
                <mxCell id="UeNubtmWDF6grxcIPzkH-18" value="usuarios_id (FK)" style="text;strokeColor=none;fillColor=none;align=left;verticalAlign=top;spacingLeft=4;spacingRight=4;overflow=hidden;rotatable=0;points=[[0,0.5],[1,0.5]];portConstraint=eastwest;" parent="UeNubtmWDF6grxcIPzkH-12" vertex="1">
                    <mxGeometry y="156" width="210" height="26" as="geometry"/>
                </mxCell>
                <mxCell id="UeNubtmWDF6grxcIPzkH-19" value="categorias_id (FK)" style="text;strokeColor=none;fillColor=none;align=left;verticalAlign=top;spacingLeft=4;spacingRight=4;overflow=hidden;rotatable=0;points=[[0,0.5],[1,0.5]];portConstraint=eastwest;" parent="UeNubtmWDF6grxcIPzkH-12" vertex="1">
                    <mxGeometry y="182" width="210" height="26" as="geometry"/>
                </mxCell>
                <mxCell id="UeNubtmWDF6grxcIPzkH-20" value="etiquetas" style="swimlane;fontStyle=0;childLayout=stackLayout;horizontal=1;startSize=26;fillColor=none;horizontalStack=0;resizeParent=1;resizeParentMax=0;resizeLast=0;collapsible=1;marginBottom=0;" parent="IC6CjiGGvlEDifJ1MJYV-1" vertex="1">
                    <mxGeometry x="566" y="1017" width="195" height="78" as="geometry"/>
                </mxCell>
                <mxCell id="UeNubtmWDF6grxcIPzkH-21" value="id: Integer (PK)" style="text;strokeColor=none;fillColor=none;align=left;verticalAlign=top;spacingLeft=4;spacingRight=4;overflow=hidden;rotatable=0;points=[[0,0.5],[1,0.5]];portConstraint=eastwest;" parent="UeNubtmWDF6grxcIPzkH-20" vertex="1">
                    <mxGeometry y="26" width="195" height="26" as="geometry"/>
                </mxCell>
                <mxCell id="UeNubtmWDF6grxcIPzkH-22" value="nombre_etiqueta: VARCHAR(30)" style="text;strokeColor=none;fillColor=none;align=left;verticalAlign=top;spacingLeft=4;spacingRight=4;overflow=hidden;rotatable=0;points=[[0,0.5],[1,0.5]];portConstraint=eastwest;" parent="UeNubtmWDF6grxcIPzkH-20" vertex="1">
                    <mxGeometry y="52" width="195" height="26" as="geometry"/>
                </mxCell>
                <mxCell id="UeNubtmWDF6grxcIPzkH-24" value="posts_etiquetas" style="swimlane;fontStyle=0;childLayout=stackLayout;horizontal=1;startSize=26;fillColor=none;horizontalStack=0;resizeParent=1;resizeParentMax=0;resizeLast=0;collapsible=1;marginBottom=0;" parent="IC6CjiGGvlEDifJ1MJYV-1" vertex="1">
                    <mxGeometry x="361.5" y="849" width="173.5" height="78" as="geometry"/>
                </mxCell>
                <mxCell id="UeNubtmWDF6grxcIPzkH-25" value="post_id: Integer (PK)" style="text;strokeColor=none;fillColor=none;align=left;verticalAlign=top;spacingLeft=4;spacingRight=4;overflow=hidden;rotatable=0;points=[[0,0.5],[1,0.5]];portConstraint=eastwest;" parent="UeNubtmWDF6grxcIPzkH-24" vertex="1">
                    <mxGeometry y="26" width="173.5" height="26" as="geometry"/>
                </mxCell>
                <mxCell id="UeNubtmWDF6grxcIPzkH-26" value="etiqueta_id: INTEGER (PK)" style="text;strokeColor=none;fillColor=none;align=left;verticalAlign=top;spacingLeft=4;spacingRight=4;overflow=hidden;rotatable=0;points=[[0,0.5],[1,0.5]];portConstraint=eastwest;" parent="UeNubtmWDF6grxcIPzkH-24" vertex="1">
                    <mxGeometry y="52" width="173.5" height="26" as="geometry"/>
                </mxCell>
                <mxCell id="UeNubtmWDF6grxcIPzkH-27" value="" style="edgeStyle=entityRelationEdgeStyle;fontSize=12;html=1;endArrow=ERzeroToMany;startArrow=ERzeroToOne;exitX=1;exitY=0.5;exitDx=0;exitDy=0;entryX=-0.031;entryY=0.538;entryDx=0;entryDy=0;entryPerimeter=0;" parent="IC6CjiGGvlEDifJ1MJYV-1" target="UeNubtmWDF6grxcIPzkH-25" edge="1">
                    <mxGeometry width="100" height="100" relative="1" as="geometry">
                        <mxPoint x="280" y="832.01" as="sourcePoint"/>
                        <mxPoint x="335.02" y="716.998" as="targetPoint"/>
                    </mxGeometry>
                </mxCell>
                <mxCell id="UeNubtmWDF6grxcIPzkH-28" value="" style="edgeStyle=entityRelationEdgeStyle;fontSize=12;html=1;endArrow=ERzeroToMany;startArrow=ERzeroToOne;exitX=1;exitY=0.5;exitDx=0;exitDy=0;entryX=0.523;entryY=-0.077;entryDx=0;entryDy=0;entryPerimeter=0;" parent="IC6CjiGGvlEDifJ1MJYV-1" target="UeNubtmWDF6grxcIPzkH-20" edge="1">
                    <mxGeometry width="100" height="100" relative="1" as="geometry">
                        <mxPoint x="538" y="893" as="sourcePoint"/>
                        <mxPoint x="594.9549999999999" y="934.9780000000001" as="targetPoint"/>
                    </mxGeometry>
                </mxCell>
            </root>
        </mxGraphModel>
    </diagram>
</mxfile>